<?xml version="1.0" encoding="iso-8859-1"?>
<!-- Generator: Adobe Illustrator 26.1.0, SVG Export Plug-In . SVG Version: 6.00 Build 0)  -->
<svg version="1.1" id="Calque_1" xmlns="http://www.w3.org/2000/svg" xmlns:xlink="http://www.w3.org/1999/xlink" x="0px" y="0px"
	 viewBox="0 0 200 55.385" style="enable-background:new 0 0 200 55.385;" xml:space="preserve">
<g>
	<g>
		<path style="fill:#70042E;" d="M82.283,12.907h11.524v3.767H86.05v3.324h6.87v3.767h-6.87v7.092h-3.767V12.907z"/>
		<path style="fill:#70042E;" d="M94.714,24.83c0-3.524,2.792-6.249,6.36-6.249c3.546,0,6.338,2.748,6.338,6.249
			s-2.792,6.249-6.338,6.249C97.507,31.08,94.714,28.354,94.714,24.83z M103.734,24.83c0-1.485-1.175-2.682-2.659-2.682
			c-1.529,0-2.726,1.175-2.726,2.682c0,1.507,1.197,2.704,2.726,2.704C102.56,27.534,103.734,26.337,103.734,24.83z"/>
		<path style="fill:#70042E;" d="M113.417,25.473v5.385h-3.745V18.802h3.745v1.618c0.421-1.307,1.551-1.839,2.571-1.839
			c0.133,0,0.288,0,0.421,0.022v3.657C114.747,21.883,113.417,22.703,113.417,25.473z"/>
		<path style="fill:#70042E;" d="M118.557,18.802h3.767v0.532c0.665-0.488,1.441-0.753,2.26-0.753c1.197,0,2.327,0.532,3.191,1.485
			c0.82-0.953,1.994-1.485,3.324-1.485c2.593,0,4.565,2.061,4.565,4.765v7.513h-3.767v-7.291c0-0.886-0.598-1.529-1.418-1.529
			c-0.864,0-1.485,0.687-1.485,1.662v7.158h-3.767v-7.291c0-0.909-0.598-1.529-1.463-1.529c-0.842,0-1.441,0.687-1.441,1.662v7.158
			h-3.767V18.802z"/>
		<path style="fill:#70042E;" d="M137.636,24.808c0-3.457,2.682-6.272,5.961-6.272c1.241,0,2.327,0.332,3.191,0.975v-0.709h3.767
			v12.056h-3.546l-0.044-0.864c-0.909,0.709-2.061,1.086-3.369,1.086C140.296,31.08,137.636,28.265,137.636,24.808z M146.878,24.808
			c0-1.529-1.197-2.748-2.726-2.748c-1.551,0-2.748,1.197-2.748,2.748c0,1.551,1.219,2.77,2.748,2.77
			C145.681,27.578,146.878,26.359,146.878,24.808z"/>
		<path style="fill:#70042E;" d="M154.743,22.016h-2.194v-3.214h2.194v-4.011h3.767v4.011h2.172v3.214h-2.172v8.842h-3.767V22.016z"
			/>
		<path style="fill:#70042E;" d="M162.388,15.611c0-1.152,0.953-2.105,2.128-2.105s2.127,0.931,2.127,2.105
			s-0.953,2.105-2.127,2.105S162.388,16.764,162.388,15.611z M162.654,18.802h3.723v12.056h-3.723V18.802z"/>
		<path style="fill:#70042E;" d="M168.681,24.83c0-3.524,2.792-6.249,6.36-6.249c3.546,0,6.338,2.748,6.338,6.249
			s-2.792,6.249-6.338,6.249C171.474,31.08,168.681,28.354,168.681,24.83z M177.701,24.83c0-1.485-1.175-2.682-2.66-2.682
			c-1.529,0-2.726,1.175-2.726,2.682c0,1.507,1.197,2.704,2.726,2.704C176.526,27.534,177.701,26.337,177.701,24.83z"/>
		<path style="fill:#70042E;" d="M183.639,18.802h3.745v0.753c0.753-0.709,1.64-0.975,2.549-0.975c2.482,0,4.454,2.039,4.454,4.61
			v7.668h-3.767v-7.313c0-0.909-0.665-1.551-1.574-1.551c-0.953,0-1.64,0.665-1.662,1.551v7.313h-3.745V18.802z"/>
	</g>
	<g>
		<g>
			<path style="fill:#A30435;" d="M38.444,36.953c-0.324-0.324-0.632-0.596-0.93-0.938l0,15.695h0c3.508,0,6.352-2.844,6.352-6.352
				v-4.575C41.904,39.85,40.066,38.574,38.444,36.953z"/>
		</g>
		<linearGradient id="SVGID_1_" gradientUnits="userSpaceOnUse" x1="37.0494" y1="49.6325" x2="41.9516" y2="38.4864">
			<stop  offset="0" style="stop-color:#70042E;stop-opacity:0"/>
			<stop  offset="1" style="stop-color:#70042E"/>
		</linearGradient>
		<path style="fill:url(#SVGID_1_);" d="M38.444,36.952c-0.324-0.324-0.633-0.596-0.93-0.937l0,15.694h0
			c3.508,0,6.352-2.844,6.352-6.352v-4.564v-0.012C41.904,39.849,40.066,38.573,38.444,36.952z"/>
		
			<linearGradient id="SVGID_00000083797218684914210990000010337623021754135207_" gradientUnits="userSpaceOnUse" x1="5.9694" y1="23.1794" x2="71.8431" y2="23.1794">
			<stop  offset="0" style="stop-color:#ED1C24"/>
			<stop  offset="1" style="stop-color:#A30435"/>
		</linearGradient>
		<path style="fill:url(#SVGID_00000083797218684914210990000010337623021754135207_);" d="M66.12,9.341
			c-3.696-3.696-8.611-5.732-13.838-5.732c-5.227,0-10.142,2.036-13.838,5.732c-1.865,1.865-3.309,4.04-4.294,6.465l-4.414,10.672
			l-0.638,1.542c-0.437,1.079-1.081,2.047-1.914,2.88c-3.396,3.397-8.923,3.396-12.319,0c-3.396-3.396-3.396-8.923,0-12.319
			c1.698-1.698,3.929-2.547,6.16-2.547c2.23,0,4.462,0.849,6.16,2.547c0,0,0,0,0,0c1.645,1.645,2.551,3.833,2.551,6.159v1.738
			l4.04-9.767c-0.594-0.938-1.296-1.816-2.101-2.62l0.001-0.002c-5.873-5.873-15.429-5.873-21.302,0
			c-5.873,5.873-5.873,15.429,0,21.302c2.937,2.937,6.793,4.405,10.651,4.405c3.056,0,6.113-0.922,8.711-2.766
			c0,0,1.26-0.962,1.947-1.649c1.434-1.434,2.546-3.108,3.304-4.974l1.1-2.66V27.74l3.944-9.536
			c0.664-1.637,1.641-3.108,2.904-4.371c2.497-2.497,5.816-3.872,9.347-3.872c3.531,0,6.85,1.375,9.347,3.871
			c5.154,5.154,5.154,13.54,0,18.693c-2.497,2.497-5.816,3.872-9.347,3.872c-3.531,0-6.85-1.375-9.347-3.872
			c0,0-3.218,0.512-5.419,3.49c0,0,0,0-0.001-0.001l-0.001,0c0-0.001-0.001-0.001-0.001-0.002v0.002v0.001l0.002-0.001
			c0.298,0.342,0.605,0.677,0.928,1.001c1.622,1.622,3.46,2.908,5.421,3.84l0,0v0.001c2.595,1.238,5.456,1.891,8.417,1.891
			c5.227,0,10.142-2.036,13.838-5.732C73.751,29.387,73.751,16.972,66.12,9.341z"/>
		<path style="fill:#70042E;" d="M36.088,27.74v0.008l-1.1,2.66c-0.759,1.866-1.87,3.54-3.304,4.974
			c-0.329,0.329-0.789,0.72-1.18,1.04c1.076,1.979,3.173,3.323,5.584,3.323h0L36.088,27.74L36.088,27.74z"/>
		
			<linearGradient id="SVGID_00000006672011294985858070000016778897062179989648_" gradientUnits="userSpaceOnUse" x1="29.1524" y1="18.4616" x2="33.5422" y2="23.3776">
			<stop  offset="0" style="stop-color:#A30435;stop-opacity:0"/>
			<stop  offset="1" style="stop-color:#70042E"/>
		</linearGradient>
		<path style="fill:url(#SVGID_00000006672011294985858070000016778897062179989648_);" d="M31.674,14.025l-4.49,4.492
			c1.645,1.645,2.551,3.833,2.551,6.16l0.001,1.736l4.04-9.767C33.182,15.708,32.479,14.83,31.674,14.025
			C31.675,14.025,31.674,14.025,31.674,14.025z"/>
	</g>
</g>
</svg>
