<svg width="256" height="256" viewBox="0 0 256 256" fill="#009f74" xmlns="http://www.w3.org/2000/svg">
    <path d="M128.041 61.9193L142.104 37.5629V149.432L128.041 173.789V61.9193Z"/>
    <path d="M126.246 50.52H129.801V170.67H126.246V50.52Z"/>
    <path d="M114.008 37.5838L128.07 61.9403V173.81L114.008 149.453V37.5838Z"/>
    <path d="M108.124 64.849L124.353 36.7408L207.24 36.7552L191.012 64.8635L108.124 64.849Z"/>
    <path d="M57 36.74L73.2283 64.8483L184.118 64.8676L167.89 36.7594L57 36.74Z"/>
    <path d="M48.9482 36.7408L65.1765 64.8491L148.064 64.8635L131.835 36.7552L48.9482 36.7408Z"/>
    <path d="M214.001 36.7408H253.112L147.593 219.505H108.482L214.001 36.7408Z"/>
    <path d="M2.96297 36.7408H42.0741L147.593 219.505H108.482L2.96297 36.7408Z"/>
</svg>
