<svg width="48" height="48" viewBox="0 0 48 48" fill="#009f74" xmlns="http://www.w3.org/2000/svg">
    <path d="M24.0078 11.6099L26.6444 7.04303V28.0186L24.0078 32.5854V11.6099Z"/>
    <path d="M23.6711 9.4725H24.3378V32.0006H23.6711V9.4725Z"/>
    <path d="M21.3764 7.04697L24.0131 11.6138V32.5894L21.3764 28.0225V7.04697Z"/>
    <path d="M20.2733 12.1592L23.3161 6.88889L38.8575 6.8916L35.8147 12.1619L20.2733 12.1592Z"/>
    <path d="M10.6875 6.88875L13.7303 12.159L34.5222 12.1627L31.4794 6.89238L10.6875 6.88875Z"/>
    <path d="M9.17778 6.88889L12.2206 12.1592L27.7619 12.1619L24.7191 6.89161L9.17778 6.88889Z"/>
    <path d="M40.1253 6.8889H47.4586L27.6737 41.1573H20.3404L40.1253 6.8889Z"/>
    <path d="M0.555557 6.8889H7.88889L27.6737 41.1573H20.3404L0.555557 6.8889Z"/>
</svg>